<svg width="134" height="32" viewBox="0 0 134 32" fill="none" xmlns="http://www.w3.org/2000/svg">
<g id="Frame 3355216">
<g id="Group 56">
<g id="Group">
<path id="Vector" d="M23.8771 10.281C19.59 14.7699 19.8398 18.5276 24.8209 21.7723C23.6495 24.3255 22.4689 26.9546 19.9716 28.49C19.0733 29.0423 17.5047 29.0875 16.4733 28.7183C14.4119 27.9802 12.5045 27.845 10.5177 28.7463C8.9665 29.4502 7.56349 29.2415 6.22276 28.1536C2.42437 25.0732 0.0211105 17.3819 1.38648 12.7055C2.45653 9.04053 6.631 5.58741 11.1566 8.01052C12.8539 8.91905 14.4146 8.48617 16.0613 7.81204C19.2886 6.49116 21.8318 7.3422 23.8771 10.281Z" fill="#202020"/>
<path id="Vector_2" d="M18.0436 1C18.392 4.36996 16.2009 7.08804 12.9113 7.48294C12.1209 4.56057 14.5097 1.47976 18.0436 1Z" fill="#202020"/>
</g>
<g id="Download on the App Store">
<path d="M43.5685 14.592H40.8802V6.17383H43.5685C44.839 6.17383 45.8655 6.58191 46.648 7.39806C47.4305 8.20581 47.8217 9.20287 47.8217 10.3892C47.8217 11.584 47.4305 12.5853 46.648 13.393C45.8739 14.1924 44.8474 14.592 43.5685 14.592ZM43.5685 13.9357C44.6454 13.9357 45.4953 13.5992 46.1179 12.9261C46.7489 12.2529 47.0645 11.4073 47.0645 10.3892C47.0645 9.37115 46.7531 8.52554 46.1305 7.85242C45.5079 7.17089 44.6539 6.83012 43.5685 6.83012H41.5996V13.9357H43.5685Z" fill="#202020"/>
<path d="M52.1682 14.7435C51.2931 14.7435 50.5863 14.4364 50.0479 13.8222C49.5094 13.2079 49.2401 12.4465 49.2401 11.5378C49.2401 10.629 49.5094 9.87178 50.0479 9.26597C50.5863 8.65175 51.2931 8.34464 52.1682 8.34464C53.0516 8.34464 53.7626 8.65175 54.3011 9.26597C54.8396 9.87178 55.1089 10.629 55.1089 11.5378C55.1089 12.4465 54.8396 13.2079 54.3011 13.8222C53.7626 14.4364 53.0516 14.7435 52.1682 14.7435ZM52.1682 14.1503C52.8581 14.1503 53.4008 13.8979 53.7963 13.393C54.2002 12.8798 54.4021 12.2614 54.4021 11.5378C54.4021 10.8226 54.2002 10.2125 53.7963 9.70771C53.4008 9.19445 52.8581 8.93783 52.1682 8.93783C51.4866 8.93783 50.9439 9.19445 50.5401 9.70771C50.1446 10.2125 49.9469 10.8226 49.9469 11.5378C49.9469 12.2529 50.1446 12.8672 50.5401 13.3804C50.9439 13.8937 51.4866 14.1503 52.1682 14.1503Z" fill="#202020"/>
<path d="M62.6599 14.592H62.0288L60.325 9.37956L58.6085 14.592H57.9775L55.996 8.49609H56.7028L58.3182 13.6707L60.0347 8.49609H60.6026L62.3191 13.6707L63.9346 8.49609H64.6414L62.6599 14.592Z" fill="#202020"/>
<path d="M70.6458 14.592H69.9895V10.465C69.9895 9.90964 69.8633 9.51839 69.6109 9.29121C69.3585 9.05562 68.9925 8.93783 68.5129 8.93783C68.1342 8.93783 67.7598 9.03879 67.3896 9.24073C67.0194 9.44267 66.7333 9.69088 66.5314 9.98537V14.592H65.8751V8.49609H66.5314V9.41742C66.7754 9.13135 67.0993 8.88314 67.5032 8.67279C67.907 8.45402 68.3151 8.34464 68.7274 8.34464C70.0063 8.34464 70.6458 9.00514 70.6458 10.3261V14.592Z" fill="#202020"/>
<path d="M73.3472 14.592H72.6909V6.17383H73.3472V14.592Z" fill="#202020"/>
<path d="M77.9648 14.7435C77.0897 14.7435 76.383 14.4364 75.8445 13.8222C75.306 13.2079 75.0367 12.4465 75.0367 11.5378C75.0367 10.629 75.306 9.87178 75.8445 9.26597C76.383 8.65175 77.0897 8.34464 77.9648 8.34464C78.8483 8.34464 79.5592 8.65175 80.0977 9.26597C80.6362 9.87178 80.9055 10.629 80.9055 11.5378C80.9055 12.4465 80.6362 13.2079 80.0977 13.8222C79.5592 14.4364 78.8483 14.7435 77.9648 14.7435ZM77.9648 14.1503C78.6547 14.1503 79.1974 13.8979 79.5929 13.393C79.9968 12.8798 80.1987 12.2614 80.1987 11.5378C80.1987 10.8226 79.9968 10.2125 79.5929 9.70771C79.1974 9.19445 78.6547 8.93783 77.9648 8.93783C77.2833 8.93783 76.7406 9.19445 76.3367 9.70771C75.9412 10.2125 75.7435 10.8226 75.7435 11.5378C75.7435 12.2529 75.9412 12.8672 76.3367 13.3804C76.7406 13.8937 77.2833 14.1503 77.9648 14.1503Z" fill="#202020"/>
<path d="M87.1313 14.592H86.475V13.8726C85.9449 14.4532 85.255 14.7435 84.4052 14.7435C83.8414 14.7435 83.345 14.5626 82.9159 14.2008C82.4868 13.8306 82.2722 13.3341 82.2722 12.7115C82.2722 12.0805 82.4826 11.5882 82.9033 11.2348C83.3324 10.873 83.833 10.6921 84.4052 10.6921C85.2634 10.6921 85.9533 10.9824 86.475 11.563V10.3261C86.475 9.88861 86.3193 9.54784 86.008 9.30383C85.6967 9.05141 85.3055 8.9252 84.8343 8.9252C84.0854 8.9252 83.4502 9.2239 82.9285 9.8213L82.5625 9.36694C83.1935 8.68541 83.976 8.34464 84.91 8.34464C85.5663 8.34464 86.1006 8.50871 86.5129 8.83686C86.9251 9.165 87.1313 9.65302 87.1313 10.3009V14.592ZM84.6323 14.226C85.4317 14.226 86.0459 13.9484 86.475 13.393V12.0552C86.0375 11.4915 85.4232 11.2096 84.6323 11.2096C84.1359 11.2096 83.732 11.3526 83.4207 11.6387C83.1178 11.9248 82.9664 12.2866 82.9664 12.7241C82.9664 13.1617 83.1178 13.5235 83.4207 13.8095C83.732 14.0872 84.1359 14.226 84.6323 14.226Z" fill="#202020"/>
<path d="M94.344 14.592H93.6751V13.6202C93.4479 13.9484 93.145 14.2176 92.7664 14.428C92.3961 14.6383 91.9923 14.7435 91.5547 14.7435C90.7386 14.7435 90.0781 14.4532 89.5733 13.8726C89.0768 13.2921 88.8286 12.518 88.8286 11.5504C88.8286 10.5912 89.081 9.81709 89.5859 9.22811C90.0907 8.63913 90.747 8.34464 91.5547 8.34464C92.4298 8.34464 93.1366 8.72327 93.6751 9.48053V6.17383H94.344V14.592ZM91.6683 14.1503C92.0806 14.1503 92.4719 14.0451 92.8421 13.8348C93.2123 13.6244 93.49 13.3678 93.6751 13.0649V10.0485C93.49 9.73716 93.2123 9.47632 92.8421 9.26597C92.4719 9.04721 92.0806 8.93783 91.6683 8.93783C91.012 8.93783 90.4904 9.18604 90.1033 9.68246C89.7247 10.1705 89.5354 10.7931 89.5354 11.5504C89.5354 12.3076 89.7247 12.9303 90.1033 13.4183C90.4904 13.9063 91.012 14.1503 91.6683 14.1503Z" fill="#202020"/>
<path d="M102.233 14.7435C101.358 14.7435 100.651 14.4364 100.113 13.8222C99.5743 13.2079 99.305 12.4465 99.305 11.5378C99.305 10.629 99.5743 9.87178 100.113 9.26597C100.651 8.65175 101.358 8.34464 102.233 8.34464C103.117 8.34464 103.828 8.65175 104.366 9.26597C104.905 9.87178 105.174 10.629 105.174 11.5378C105.174 12.4465 104.905 13.2079 104.366 13.8222C103.828 14.4364 103.117 14.7435 102.233 14.7435ZM102.233 14.1503C102.923 14.1503 103.466 13.8979 103.861 13.393C104.265 12.8798 104.467 12.2614 104.467 11.5378C104.467 10.8226 104.265 10.2125 103.861 9.70771C103.466 9.19445 102.923 8.93783 102.233 8.93783C101.552 8.93783 101.009 9.19445 100.605 9.70771C100.21 10.2125 100.012 10.8226 100.012 11.5378C100.012 12.2529 100.21 12.8672 100.605 13.3804C101.009 13.8937 101.552 14.1503 102.233 14.1503Z" fill="#202020"/>
<path d="M111.639 14.592H110.983V10.465C110.983 9.90964 110.857 9.51839 110.604 9.29121C110.352 9.05562 109.986 8.93783 109.506 8.93783C109.128 8.93783 108.753 9.03879 108.383 9.24073C108.013 9.44267 107.727 9.69088 107.525 9.98537V14.592H106.869V8.49609H107.525V9.41742C107.769 9.13135 108.093 8.88314 108.497 8.67279C108.901 8.45402 109.309 8.34464 109.721 8.34464C111 8.34464 111.639 9.00514 111.639 10.3261V14.592Z" fill="#202020"/>
<path d="M118.276 14.7435C117.477 14.7435 117.077 14.3017 117.077 13.4183V9.07666H116.067V8.49609H117.077V6.83012H117.746V8.49609H118.983V9.07666H117.746V13.3173C117.746 13.8726 117.956 14.1503 118.377 14.1503C118.654 14.1503 118.882 14.0535 119.058 13.86L119.311 14.3649C119.042 14.6173 118.697 14.7435 118.276 14.7435Z" fill="#202020"/>
<path d="M125.197 14.592H124.541V10.4397C124.541 9.8844 124.415 9.49736 124.162 9.27859C123.91 9.05141 123.544 8.93783 123.064 8.93783C122.686 8.93783 122.311 9.03879 121.941 9.24073C121.571 9.44267 121.285 9.69088 121.083 9.98537V14.592H120.426V6.17383H121.083V9.41742C121.327 9.13135 121.651 8.88314 122.054 8.67279C122.458 8.45402 122.866 8.34464 123.279 8.34464C124.558 8.34464 125.197 8.99672 125.197 10.3009V14.592Z" fill="#202020"/>
<path d="M129.943 14.7435C129.051 14.7435 128.319 14.4448 127.747 13.8474C127.175 13.25 126.889 12.4801 126.889 11.5378C126.889 10.6459 127.166 9.89281 127.722 9.27859C128.286 8.65596 128.988 8.34464 129.829 8.34464C130.721 8.34464 131.424 8.65596 131.937 9.27859C132.45 9.89281 132.707 10.6585 132.707 11.5756V11.7523H127.608C127.642 12.4423 127.873 13.0186 128.302 13.4814C128.731 13.9442 129.295 14.1755 129.994 14.1755C130.801 14.1755 131.466 13.8937 131.988 13.3299L132.328 13.759C131.697 14.4153 130.902 14.7435 129.943 14.7435ZM132.038 11.2348C132.03 10.6459 131.832 10.1116 131.445 9.63198C131.066 9.15238 130.524 8.91258 129.817 8.91258C129.152 8.91258 128.622 9.15238 128.227 9.63198C127.84 10.1032 127.633 10.6375 127.608 11.2348H132.038Z" fill="#202020"/>
<path d="M48.5159 29.1547H46.4713L45.9538 27.7285H42.3442L41.8141 29.1547H39.7695L43.0257 20.7365H45.2723L48.5159 29.1547ZM45.4616 26.1509L44.149 22.5287L42.8364 26.1509H45.4616Z" fill="#202020"/>
<path d="M52.7388 29.3062C51.9731 29.3062 51.3463 28.9948 50.8583 28.3722V31.477H49.2554V23.0588H50.8583V23.8287C51.3379 23.2144 51.9647 22.9073 52.7388 22.9073C53.5381 22.9073 54.186 23.1934 54.6824 23.7656C55.1873 24.3293 55.4397 25.1076 55.4397 26.1004C55.4397 27.0933 55.1873 27.8758 54.6824 28.4479C54.186 29.0201 53.5381 29.3062 52.7388 29.3062ZM52.2339 27.88C52.6967 27.88 53.0669 27.7159 53.3446 27.3878C53.6307 27.0596 53.7737 26.6305 53.7737 26.1004C53.7737 25.5788 53.6307 25.1539 53.3446 24.8257C53.0669 24.4976 52.6967 24.3335 52.2339 24.3335C51.9731 24.3335 51.7123 24.4008 51.4514 24.5354C51.1906 24.6701 50.9929 24.8341 50.8583 25.0277V27.1858C50.9929 27.3794 51.1906 27.5434 51.4514 27.6781C51.7207 27.8127 51.9815 27.88 52.2339 27.88Z" fill="#202020"/>
<path d="M60.0969 29.3062C59.3312 29.3062 58.7044 28.9948 58.2164 28.3722V31.477H56.6135V23.0588H58.2164V23.8287C58.696 23.2144 59.3228 22.9073 60.0969 22.9073C60.8963 22.9073 61.5441 23.1934 62.0406 23.7656C62.5454 24.3293 62.7978 25.1076 62.7978 26.1004C62.7978 27.0933 62.5454 27.8758 62.0406 28.4479C61.5441 29.0201 60.8963 29.3062 60.0969 29.3062ZM59.5921 27.88C60.0549 27.88 60.4251 27.7159 60.7027 27.3878C60.9888 27.0596 61.1318 26.6305 61.1318 26.1004C61.1318 25.5788 60.9888 25.1539 60.7027 24.8257C60.4251 24.4976 60.0549 24.3335 59.5921 24.3335C59.3312 24.3335 59.0704 24.4008 58.8096 24.5354C58.5487 24.6701 58.351 24.8341 58.2164 25.0277V27.1858C58.351 27.3794 58.5487 27.5434 58.8096 27.6781C59.0788 27.8127 59.3397 27.88 59.5921 27.88Z" fill="#202020"/>
<path d="M70.2299 29.3062C68.7322 29.3062 67.5458 28.8602 66.6708 27.9683L67.6426 26.6053C68.3662 27.3625 69.2581 27.7412 70.3183 27.7412C70.781 27.7412 71.1386 27.6528 71.391 27.4761C71.6519 27.291 71.7823 27.068 71.7823 26.8072C71.7823 26.58 71.6603 26.3907 71.4163 26.2393C71.1807 26.0878 70.882 25.9784 70.5202 25.9111C70.1668 25.8438 69.7798 25.747 69.3591 25.6208C68.9384 25.4946 68.5471 25.3516 68.1853 25.1917C67.8319 25.0319 67.5332 24.7794 67.2892 24.4345C67.0536 24.0895 66.9358 23.6688 66.9358 23.1724C66.9358 22.4488 67.2261 21.843 67.8067 21.3549C68.3872 20.8585 69.1613 20.6103 70.1289 20.6103C71.4668 20.6103 72.5606 21.0016 73.4104 21.7841L72.4133 23.0966C71.7486 22.4824 70.9325 22.1753 69.9649 22.1753C69.5862 22.1753 69.2917 22.251 69.0814 22.4025C68.871 22.5539 68.7659 22.7601 68.7659 23.0209C68.7659 23.2228 68.8837 23.3953 69.1193 23.5384C69.3633 23.673 69.662 23.774 70.0153 23.8413C70.3771 23.9086 70.7642 24.0096 71.1765 24.1442C71.5972 24.2704 71.9842 24.4176 72.3376 24.5859C72.6994 24.7458 72.9981 25.0024 73.2337 25.3558C73.4777 25.7008 73.5997 26.1173 73.5997 26.6053C73.5997 27.413 73.3094 28.0651 72.7289 28.5615C72.1567 29.058 71.3237 29.3062 70.2299 29.3062Z" fill="#202020"/>
<path d="M76.6406 29.3062C76.0768 29.3062 75.6477 29.1631 75.3532 28.8771C75.0588 28.591 74.9115 28.1787 74.9115 27.6402V24.4597H73.9018V23.0588H74.9115V21.3928H76.527V23.0588H77.7638V24.4597H76.527V27.2111C76.527 27.4046 76.5775 27.5645 76.6784 27.6907C76.7794 27.8169 76.914 27.88 77.0823 27.88C77.3347 27.88 77.5198 27.8211 77.6376 27.7033L77.9784 28.9149C77.6839 29.1758 77.238 29.3062 76.6406 29.3062Z" fill="#202020"/>
<path d="M84.0351 28.3848C83.4461 28.9991 82.6636 29.3062 81.6876 29.3062C80.7116 29.3062 79.9291 28.9991 79.3401 28.3848C78.7595 27.7622 78.4692 27.0007 78.4692 26.1004C78.4692 25.2001 78.7595 24.4429 79.3401 23.8287C79.9291 23.2144 80.7116 22.9073 81.6876 22.9073C82.6636 22.9073 83.4461 23.2144 84.0351 23.8287C84.6241 24.4429 84.9186 25.2001 84.9186 26.1004C84.9186 27.0007 84.6241 27.7622 84.0351 28.3848ZM80.5517 27.3752C80.8294 27.7117 81.208 27.88 81.6876 27.88C82.1672 27.88 82.5458 27.7117 82.8235 27.3752C83.1096 27.0302 83.2526 26.6053 83.2526 26.1004C83.2526 25.604 83.1096 25.1875 82.8235 24.851C82.5458 24.506 82.1672 24.3335 81.6876 24.3335C81.208 24.3335 80.8294 24.506 80.5517 24.851C80.274 25.1875 80.1352 25.604 80.1352 26.1004C80.1352 26.6053 80.274 27.0302 80.5517 27.3752Z" fill="#202020"/>
<path d="M87.7106 29.1547H86.1077V23.0588H87.7106V23.8918C87.9377 23.6057 88.228 23.3701 88.5814 23.185C88.9348 22.9999 89.2924 22.9073 89.6542 22.9073V24.4723C89.5448 24.4471 89.3976 24.4345 89.2125 24.4345C88.9432 24.4345 88.6571 24.5018 88.3542 24.6364C88.0513 24.771 87.8368 24.9351 87.7106 25.1286V29.1547Z" fill="#202020"/>
<path d="M93.5207 29.3062C92.5783 29.3062 91.8 29.0117 91.1858 28.4227C90.5716 27.8337 90.2645 27.0596 90.2645 26.1004C90.2645 25.2001 90.5589 24.4429 91.1479 23.8287C91.7453 23.2144 92.5026 22.9073 93.4197 22.9073C94.3284 22.9073 95.0646 23.2186 95.6284 23.8413C96.1921 24.4555 96.474 25.2632 96.474 26.2645V26.6179H91.943C91.9935 27.0218 92.1744 27.3583 92.4857 27.6276C92.7971 27.8968 93.2009 28.0314 93.6974 28.0314C93.9666 28.0314 94.2569 27.9768 94.5682 27.8674C94.8879 27.758 95.1404 27.6107 95.3255 27.4256L96.0322 28.4606C95.418 29.0243 94.5808 29.3062 93.5207 29.3062ZM94.9216 25.5325C94.8964 25.1875 94.7575 24.8762 94.5051 24.5985C94.2611 24.3209 93.8993 24.182 93.4197 24.182C92.9653 24.182 92.612 24.3209 92.3595 24.5985C92.1071 24.8678 91.9599 25.1791 91.9178 25.5325H94.9216Z" fill="#202020"/>
</g>
</g>
</g>
</svg>
